<svg width="103" height="28" viewBox="0 0 103 28" fill="none" xmlns="http://www.w3.org/2000/svg">
  <path d="M35.4586 7.19434H37.4149L42.3664 21.2362H39.195L38.271 18.3486H33.1177L32.1682 21.2362H29.1094L33.6509 8.47087C33.9249 7.7058 34.6471 7.19434 35.4586 7.19434ZM33.9122 15.9298H37.4956L35.7283 10.4038L33.9122 15.9298Z" fill="#1D1D1B"/>
  <path d="M46.1387 7.19434H49.0169V12.9803L53.8558 7.80383C54.2191 7.41597 54.7267 7.19434 55.2578 7.19434H58.204L52.4602 12.9696L58.4972 21.2362H54.7374L50.4253 15.1071L49.0169 16.5393V21.2362H46.1387V7.19434Z" fill="#1D1D1B"/>
  <path d="M64.0005 7.0127H65.0499V15.6373C65.0499 16.6027 65.1624 17.306 65.3919 17.7514C65.7445 18.5377 66.5134 18.932 67.7008 18.932C68.8798 18.932 69.6466 18.5377 69.9992 17.7514C70.2265 17.3081 70.3391 16.6027 70.3391 15.6373V7.0127H73.3108V15.6437C73.3108 17.1355 73.0793 18.2991 72.6183 19.1302C71.758 20.6539 70.1182 21.4169 67.6987 21.4169C65.2793 21.4169 63.6373 20.6539 62.7706 19.1302C62.3097 18.2991 62.0781 17.1355 62.0781 15.6437V8.93922C62.0802 7.87579 62.9405 7.0127 64.0005 7.0127Z" fill="#1D1D1B"/>
  <path d="M87.0374 7.55663C87.5514 7.77826 87.989 8.10645 88.348 8.53694C88.6454 8.89283 88.8791 9.28709 89.0511 9.71757C89.2253 10.1502 89.3103 10.6425 89.3103 11.1944C89.3103 11.8615 89.1425 12.5178 88.8068 13.1614C88.4712 13.8072 87.9168 14.2611 87.1457 14.5296C87.7915 14.7896 88.2482 15.1604 88.518 15.6399C88.7877 16.1194 88.9215 16.8504 88.9215 17.835V18.779C88.9215 19.4205 88.947 19.8553 88.998 20.0833C89.0745 20.4456 89.255 20.712 89.5376 20.8846V21.2362H86.3088C86.2196 20.9251 86.158 20.6736 86.1198 20.4839C86.0433 20.0897 86.0029 19.6869 85.9965 19.2735L85.9774 17.9692C85.9647 17.0742 85.8117 16.4774 85.5144 16.1791C85.217 15.8807 84.6626 15.7316 83.849 15.7316H80.992V21.2383H78.1328V9.11873C78.1328 8.0553 78.991 7.19434 80.051 7.19434H84.8282C85.7863 7.21352 86.5212 7.33286 87.0374 7.55663ZM80.992 9.63233V13.4044H84.14C84.7645 13.4044 85.234 13.3277 85.5462 13.1764C86.0985 12.91 86.3768 12.3836 86.3768 11.5951C86.3768 10.7448 86.1091 10.1736 85.5738 9.88167C85.2743 9.71544 84.8219 9.63446 84.2207 9.63446H80.992V9.63233Z" fill="#1D1D1B"/>
  <path d="M93.6126 15.0385C93.9609 14.4099 94.4729 13.9367 95.1462 13.6192C94.4792 13.1738 94.0459 12.6943 93.8462 12.1764C93.6466 11.6586 93.5467 11.1748 93.5467 10.723C93.5467 9.71928 93.9248 8.8647 94.6789 8.15504C95.433 7.44751 96.4993 7.09375 97.8758 7.09375C99.2523 7.09375 100.319 7.44751 101.073 8.15504C101.827 8.86257 102.205 9.71928 102.205 10.723C102.205 11.1748 102.105 11.6586 101.905 12.1764C101.706 12.6943 101.274 13.144 100.61 13.5233C101.289 13.9048 101.801 14.4099 102.145 15.0385C102.49 15.6672 102.659 16.3705 102.659 17.1441C102.659 18.3055 102.23 19.2965 101.372 20.1106C100.514 20.9268 99.3139 21.3338 97.7738 21.3338C96.2338 21.3338 95.0676 20.9247 94.2753 20.1106C93.483 19.2944 93.0879 18.3055 93.0879 17.1441C93.0879 16.3683 93.2621 15.6672 93.6126 15.0385ZM96.4271 18.5442C96.7776 18.9193 97.264 19.1068 97.8843 19.1068C98.5046 19.1068 98.991 18.9193 99.3415 18.5442C99.692 18.1691 99.8683 17.6427 99.8683 16.9629C99.8683 16.2575 99.6899 15.7226 99.333 15.3582C98.9761 14.9938 98.4918 14.8105 97.8843 14.8105C97.2768 14.8105 96.7946 14.9938 96.4356 15.3582C96.0787 15.7226 95.9003 16.2575 95.9003 16.9629C95.8982 17.6427 96.0745 18.1691 96.4271 18.5442ZM96.597 12.2574C96.905 12.575 97.332 12.7348 97.8779 12.7348C98.4302 12.7348 98.8572 12.5771 99.1588 12.2574C99.4604 11.9399 99.6113 11.5307 99.6113 11.0278C99.6113 10.4822 99.4604 10.0539 99.1588 9.74698C98.8572 9.43797 98.4302 9.28453 97.8779 9.28453C97.332 9.28453 96.905 9.43797 96.597 9.74698C96.289 10.056 96.1361 10.4822 96.1361 11.0278C96.1361 11.5286 96.289 11.9399 96.597 12.2574Z" fill="#1D1D1B"/>
  <path d="M6.05352 22.702L0.853516 22.7041L7.24518 4.64085C7.97803 2.57154 10.2275 0.875178 12.2434 0.875178L17.4434 0.873047L11.0517 18.9363C10.3189 21.0056 8.06937 22.702 6.05352 22.702Z" fill="#12B9E6"/>
  <path d="M18.3528 27.5526L23.5528 27.5547L17.1611 9.49143C16.4282 7.42213 14.1787 5.72576 12.1629 5.72576L6.96289 5.72363L13.3546 23.7869C14.0895 25.8562 16.3369 27.5526 18.3528 27.5526Z" fill="#5563AA"/>
</svg>
